<?xml version="1.0" encoding="utf-8" ?>
<svg xmlns="http://www.w3.org/2000/svg" xmlns:xlink="http://www.w3.org/1999/xlink" width="512" height="512">
	<path fill="#B8FB3C" d="M0 0L0 512L512 512L512 0L0 0Z"/>
	<path fill="#03045E" d="M334.605 408.196L120.597 408.097C102.8 406.554 89.8305 391.595 89.1904 374.064C89.0027 368.922 90.2767 363.778 90.9785 358.703L113.962 203.334L136.502 203.329L136.603 176.55C136.62 167.194 137.05 158.233 139.895 149.19C148.373 122.241 173.452 102.958 201.53 100.809L210.405 100.856C228.095 102.506 244.546 110.577 255.926 124.268C256.66 123.185 257.583 122.194 258.505 121.269C299.538 80.1083 369.518 105.12 374.852 163.179C375.329 168.372 375.012 173.819 375.013 179.038L374.964 202.98C376.068 203.617 395.271 203.24 398.136 203.24C398.456 203.716 398.436 204.715 398.501 205.3L401.812 230.138L420.771 355.832C421.602 361.341 422.932 367.02 422.956 372.597C423.032 389.749 411.389 404.839 394.182 408.008C392.083 408.394 389.673 408.198 387.537 408.195L334.605 408.196ZM203.423 129.695C183.107 130.84 166.494 147.379 165.836 167.799L165.773 200.049C165.773 201.035 165.627 202.249 165.862 203.203L204.34 203.267L241.856 203.255L241.844 168.053C241.84 165.339 241.898 162.553 241.489 159.863C238.827 142.334 222.218 129.615 204.811 129.648L203.423 129.695ZM303.406 129.72C289.447 131.22 274.71 141.483 271.471 155.781C270.863 158.468 270.901 161.104 270.894 163.838L270.834 203.261L314.445 203.267L346.152 203.332L346.181 180.185C346.185 175.455 346.443 170.563 346.097 165.852C344.586 145.297 327.66 129.428 306.926 129.548L303.406 129.72ZM205.7 257.234C185.414 259.337 187.139 288.426 208.731 287.247C228.986 285.081 225.029 255.807 205.7 257.234ZM303.585 257.23C283.859 259.609 286.45 289.322 307.676 287.572C327.499 284.133 323.42 256.078 303.585 257.23ZM316.553 321.172L197.228 321.185C192.776 321.188 187.925 320.799 183.527 321.363C172.671 322.754 172.487 339.326 183.792 341.879L184.103 341.952C185.498 342.249 187.02 342.164 188.444 342.168L195.349 342.165L322.887 342.178C324.344 342.185 325.927 342.302 327.371 342.116C336.212 340.973 339.374 329.882 333.248 323.871C330.261 320.941 327.061 321.093 323.15 321.114L316.553 321.172Z"/>
</svg>
